<?xml version="1.0" standalone="no"?>
<!DOCTYPE svg PUBLIC "-//W3C//DTD SVG 20010904//EN"
 "http://www.w3.org/TR/2001/REC-SVG-20010904/DTD/svg10.dtd">
<svg version="1.0" xmlns="http://www.w3.org/2000/svg"
 width="265.000000pt" height="295.000000pt" viewBox="0 0 265.000000 295.000000"
 preserveAspectRatio="xMidYMid meet">

<g transform="translate(0.000000,295.000000) scale(0.100000,-0.100000)"
fill="#000000" stroke="none">
<path d="M1300 2440 l-42 -70 26 -40 c22 -34 26 -50 26 -115 l0 -75 -70 0 -70
0 0 -75 0 -75 70 0 70 0 0 -45 0 -45 -155 0 -155 0 0 -70 0 -70 155 0 155 0 0
-50 0 -50 -215 0 -215 0 0 -70 0 -70 215 0 215 0 0 -45 0 -45 -215 0 -215 0 0
-75 0 -75 215 0 215 0 0 -45 0 -45 -155 0 -155 0 0 -70 0 -70 155 0 155 0 0
-45 0 -45 -70 0 -70 0 0 -75 0 -75 70 0 70 0 0 -45 c0 -33 -4 -45 -15 -45 -12
0 -15 -14 -15 -70 0 -56 3 -70 15 -70 12 0 15 -13 15 -55 l0 -55 35 0 35 0 0
51 c0 42 3 52 20 56 18 5 20 14 20 74 0 62 -2 69 -20 69 -17 0 -20 7 -20 45
l0 45 75 0 75 0 0 75 0 75 -76 0 -75 0 3 43 3 42 153 3 152 3 0 69 0 69 -152
3 -153 3 -3 43 -3 42 220 0 221 0 0 75 0 75 -220 0 -220 0 0 45 0 45 220 0
220 0 0 70 0 70 -217 2 -218 3 0 45 0 45 153 3 152 3 0 69 0 70 -155 0 -155 0
0 45 0 45 75 0 75 0 0 75 0 75 -76 0 -76 0 7 78 c4 52 14 90 29 116 l23 39
-40 64 c-22 35 -43 65 -47 68 -4 3 -27 -27 -50 -65z"/>
</g>
</svg>
